<svg width="32" height="32" viewBox="0 0 32 32" fill="none" xmlns="http://www.w3.org/2000/svg">
<path d="M25.5 24H6.5C5.94772 24 5.5 24.4477 5.5 25V26C5.5 26.5523 5.94772 27 6.5 27H25.5C26.0523 27 26.5 26.5523 26.5 26V25C26.5 24.4477 26.0523 24 25.5 24Z" fill="#FADF7D"/>
<path d="M25.5 26H6.5C6.23503 25.9992 5.98113 25.8936 5.79377 25.7062C5.6064 25.5189 5.50079 25.265 5.5 25V26C5.50079 26.265 5.6064 26.5189 5.79377 26.7062C5.98113 26.8936 6.23503 26.9992 6.5 27H25.5C25.765 26.9992 26.0189 26.8936 26.2062 26.7062C26.3936 26.5189 26.4992 26.265 26.5 26V25C26.4992 25.265 26.3936 25.5189 26.2062 25.7062C26.0189 25.8936 25.765 25.9992 25.5 26Z" fill="#FFBF40"/>
<path d="M3.595 10.6748C3.22264 10.9185 2.77966 11.031 2.33617 10.9945C1.89268 10.958 1.47401 10.7747 1.14642 10.4736C0.818835 10.1724 0.601039 9.7706 0.527502 9.33174C0.453965 8.89287 0.528887 8.44201 0.740412 8.05052C0.951936 7.65902 1.28798 7.34925 1.69536 7.17022C2.10275 6.9912 2.5582 6.95314 2.98965 7.06209C3.42109 7.17103 3.80388 7.42074 4.07744 7.77171C4.35099 8.12268 4.49969 8.55485 4.5 8.99983C4.50023 9.33225 4.41761 9.65947 4.25959 9.95193C4.10158 10.2444 3.87317 10.4928 3.595 10.6748Z" fill="#FFC608"/>
<path d="M17.015 8.71989C16.7082 8.90315 16.3574 8.99992 16 8.99992C15.6426 8.99992 15.2918 8.90315 14.985 8.71989C14.6069 8.4972 14.3126 8.15637 14.1473 7.7499C13.982 7.34343 13.955 6.8939 14.0704 6.47056C14.1858 6.04723 14.4372 5.67359 14.7859 5.40724C15.1346 5.14088 15.5612 4.99658 16 4.99658C16.4388 4.99658 16.8654 5.14088 17.2141 5.40724C17.5628 5.67359 17.8142 6.04723 17.9296 6.47056C18.045 6.8939 18.018 7.34343 17.8527 7.7499C17.6874 8.15637 17.3931 8.4972 17.015 8.71989Z" fill="#FFC608"/>
<path d="M29.5 11C29.1044 11 28.7178 10.8827 28.3889 10.6629C28.06 10.4432 27.8036 10.1308 27.6522 9.76537C27.5009 9.39992 27.4613 8.99778 27.5384 8.60982C27.6156 8.22186 27.8061 7.86549 28.0858 7.58579C28.3655 7.30608 28.7219 7.1156 29.1098 7.03843C29.4978 6.96126 29.8999 7.00087 30.2654 7.15224C30.6308 7.30362 30.9432 7.55996 31.1629 7.88886C31.3827 8.21776 31.5 8.60444 31.5 9C31.5 9.53043 31.2893 10.0391 30.9142 10.4142C30.5391 10.7893 30.0304 11 29.5 11Z" fill="#FFC608"/>
<path d="M24.0001 11.41C23.8404 11.4705 23.6709 11.501 23.5001 11.5C23.2823 11.5005 23.0671 11.4527 22.8701 11.36C22.5531 11.2146 22.2964 10.9636 22.1441 10.6498C21.9918 10.3361 21.9533 9.97918 22.0352 9.64018C22.1171 9.30118 22.3143 9.0012 22.593 8.79159C22.8718 8.58199 23.2147 8.4758 23.5631 8.49122C23.9115 8.50663 24.2438 8.64269 24.5029 8.8761C24.762 9.1095 24.932 9.42573 24.9836 9.77064C25.0352 10.1156 24.9654 10.4677 24.7859 10.7667C24.6065 11.0658 24.3287 11.2932 24.0001 11.41Z" fill="#FF9C00"/>
<path d="M9.13004 11.36C8.93298 11.4527 8.71781 11.5005 8.50004 11.5C8.32925 11.5011 8.15974 11.4705 8.00004 11.41C7.67354 11.2932 7.39774 11.0667 7.2198 10.769C7.04187 10.4714 6.97284 10.1212 7.02453 9.77837C7.07622 9.43549 7.24541 9.12122 7.50318 8.88929C7.76094 8.65735 8.09127 8.52216 8.43769 8.50683C8.7841 8.49151 9.12508 8.59699 9.40232 8.80525C9.67957 9.01351 9.87585 9.31162 9.95762 9.64859C10.0394 9.98556 10.0016 10.3405 9.85061 10.6526C9.69966 10.9648 9.44495 11.2148 9.13004 11.36Z" fill="#FF9C00"/>
<path d="M12.87 17.3899C12.265 18.3549 11.49 18.9999 10.5 18.9999C9.78 18.9999 8.895 18.2949 8 17.2899V11.4099C8.1597 11.4704 8.32921 11.5009 8.5 11.4999C8.71777 11.5004 8.93294 11.4526 9.13 11.3599C9.535 12.4449 10.87 15.6999 12.87 17.3899Z" fill="#FFAA00"/>
<path d="M23.9999 11.4099V17.2899C23.1049 18.2949 22.2199 18.9999 21.4999 18.9999C20.5099 18.9999 19.7349 18.3549 19.1299 17.3899C21.1299 15.6999 22.4649 12.4449 22.8699 11.3599C23.0669 11.4526 23.2821 11.5004 23.4999 11.4999C23.6707 11.5009 23.8402 11.4704 23.9999 11.4099Z" fill="#FFAA00"/>
<path d="M17.035 22.39C17.1218 22.4557 17.2265 22.4936 17.3353 22.4987C17.4441 22.5038 17.5518 22.4758 17.6444 22.4184C17.737 22.361 17.81 22.277 17.8538 22.1773C17.8977 22.0776 17.9103 21.967 17.89 21.86L17.625 20.57L18.33 19.88C18.4023 19.8083 18.4517 19.7169 18.4721 19.6171C18.4924 19.5174 18.4826 19.4139 18.4441 19.3197C18.4056 19.2255 18.3399 19.1448 18.2555 19.0879C18.1712 19.031 18.0718 19.0004 17.97 19H16.995L16.485 17.8C16.44 17.7098 16.3708 17.634 16.2852 17.581C16.1995 17.528 16.1007 17.4999 16 17.4999C15.8993 17.4999 15.8005 17.528 15.7148 17.581C15.6292 17.634 15.56 17.7098 15.515 17.8L15.005 19H14.03C13.9282 19.0004 13.8288 19.031 13.7445 19.0879C13.6601 19.1448 13.5944 19.2255 13.5559 19.3197C13.5174 19.4139 13.5076 19.5174 13.5279 19.6171C13.5483 19.7169 13.5977 19.8083 13.67 19.88L14.375 20.57L14.11 21.86C14.0897 21.967 14.1023 22.0776 14.1462 22.1773C14.19 22.277 14.263 22.361 14.3556 22.4184C14.4482 22.4758 14.5559 22.5038 14.6647 22.4987C14.7735 22.4936 14.8782 22.4557 14.965 22.39L16 21.63L17.035 22.39ZM24 17.29C25.95 15.11 27.955 11.505 28.405 10.675C28.7306 10.8874 29.1112 11.0004 29.5 11L25.5 22V24H6.5V22L2.5 11C2.88883 11.0004 3.26935 10.8874 3.595 10.675C4.045 11.505 6.05 15.11 8 17.29C8.895 18.295 9.78 19 10.5 19C11.49 19 12.265 18.355 12.87 17.39C14.505 14.785 14.915 9.81997 14.985 8.71997C15.2918 8.90323 15.6426 9 16 9C16.3574 9 16.7082 8.90323 17.015 8.71997C17.085 9.81997 17.495 14.785 19.13 17.39C19.735 18.355 20.51 19 21.5 19C22.22 19 23.105 18.295 24 17.29Z" fill="#FADF7D"/>
<path d="M16.485 17.7998L16.995 18.9998H17.97C18.0718 19.0002 18.1711 19.0308 18.2555 19.0877C18.3399 19.1446 18.4055 19.2253 18.4441 19.3195C18.4826 19.4137 18.4923 19.5172 18.472 19.617C18.4517 19.7167 18.4023 19.8082 18.33 19.8798L17.625 20.5698L17.89 21.8598C17.9102 21.9668 17.8976 22.0774 17.8538 22.1771C17.8099 22.2768 17.7369 22.3609 17.6444 22.4183C17.5518 22.4756 17.444 22.5036 17.3353 22.4985C17.2265 22.4935 17.1218 22.4556 17.035 22.3898L16 21.6298L14.965 22.3898C14.8782 22.4556 14.7735 22.4935 14.6647 22.4985C14.5559 22.5036 14.4481 22.4756 14.3556 22.4183C14.263 22.3609 14.19 22.2768 14.1462 22.1771C14.1023 22.0774 14.0897 21.9668 14.11 21.8598L14.375 20.5698L13.67 19.8798C13.5977 19.8082 13.5482 19.7167 13.5279 19.617C13.5076 19.5172 13.5173 19.4137 13.5559 19.3195C13.5944 19.2253 13.66 19.1446 13.7444 19.0877C13.8288 19.0308 13.9282 19.0002 14.03 18.9998H15.005L15.515 17.7998C15.5599 17.7097 15.6292 17.6338 15.7148 17.5808C15.8005 17.5278 15.8992 17.4998 16 17.4998C16.1007 17.4998 16.1995 17.5278 16.2851 17.5808C16.3708 17.6338 16.44 17.7097 16.485 17.7998Z" fill="#D1013E"/>
<path d="M17.0151 7.71997C16.7083 7.90324 16.3575 8.00001 16.0001 8.00001C15.6427 8.00001 15.292 7.90324 14.9851 7.71997C14.5313 7.45447 14.2012 7.0199 14.0671 6.51147C13.9549 6.9293 13.984 7.37252 14.1501 7.77203C14.3161 8.17153 14.6098 8.50484 14.9851 8.71997C15.292 8.90324 15.6427 9.00001 16.0001 9.00001C16.3575 9.00001 16.7083 8.90324 17.0151 8.71997C17.3905 8.50484 17.6841 8.17153 17.8501 7.77203C18.0162 7.37252 18.0454 6.9293 17.9331 6.51147C17.7991 7.0199 17.469 7.45447 17.0151 7.71997Z" fill="#FFAA00"/>
<path d="M30.5151 9.71997C30.2083 9.90324 29.8575 10 29.5001 10C29.1427 10 28.792 9.90324 28.4851 9.71997C28.0313 9.45447 27.7012 9.0199 27.5671 8.51147C27.4549 8.9293 27.484 9.37252 27.6501 9.77203C27.8161 10.1715 28.1098 10.5048 28.4851 10.72C28.792 10.9032 29.1427 11 29.5001 11C29.8575 11 30.2083 10.9032 30.5151 10.72C30.8905 10.5048 31.1841 10.1715 31.3501 9.77203C31.5162 9.37252 31.5454 8.9293 31.4331 8.51147C31.2991 9.0199 30.969 9.45447 30.5151 9.71997Z" fill="#FFAA00"/>
<path d="M3.51511 9.71997C3.20826 9.90324 2.85752 10 2.50011 10C2.1427 10 1.79196 9.90324 1.48511 9.71997C1.03127 9.45447 0.701163 9.0199 0.567113 8.51147C0.454855 8.9293 0.48403 9.37252 0.65009 9.77203C0.816149 10.1715 1.10976 10.5048 1.48511 10.72C1.79196 10.9032 2.1427 11 2.50011 11C2.85752 11 3.20826 10.9032 3.51511 10.72C3.89047 10.5048 4.18408 10.1715 4.35014 9.77203C4.5162 9.37252 4.54537 8.9293 4.43311 8.51147C4.29906 9.0199 3.96896 9.45447 3.51511 9.71997Z" fill="#FFAA00"/>
<path d="M9.13002 10.3599C8.93296 10.4526 8.71779 10.5004 8.50002 10.4999C8.32923 10.501 8.15972 10.4704 8.00002 10.4099C7.79007 10.3373 7.59919 10.2184 7.44156 10.0618C7.28392 9.90534 7.16359 9.71531 7.08952 9.50589C7.03214 9.66436 7.00189 9.83137 7.00002 9.99989C6.99853 10.3099 7.09417 10.6126 7.27353 10.8655C7.45288 11.1184 7.70693 11.3088 8.00002 11.4099C8.15972 11.4704 8.32923 11.501 8.50002 11.4999C8.71779 11.5004 8.93296 11.4526 9.13002 11.3599C9.47028 11.2062 9.73982 10.9295 9.88451 10.5854C10.0292 10.2412 10.0383 9.85501 9.91002 9.50439C9.84379 9.69189 9.74063 9.8642 9.60666 10.0111C9.47269 10.1581 9.31061 10.2767 9.13002 10.3599Z" fill="#DE8800"/>
<path d="M24.13 10.3599C23.933 10.4526 23.7178 10.5004 23.5 10.4999C23.3292 10.501 23.1597 10.4704 23 10.4099C22.7901 10.3373 22.5992 10.2184 22.4416 10.0618C22.2839 9.90534 22.1636 9.71531 22.0895 9.50589C22.0321 9.66436 22.0019 9.83137 22 9.99989C21.9985 10.3099 22.0942 10.6126 22.2735 10.8655C22.4529 11.1184 22.7069 11.3088 23 11.4099C23.1597 11.4704 23.3292 11.501 23.5 11.4999C23.7178 11.5004 23.933 11.4526 24.13 11.3599C24.4703 11.2062 24.7398 10.9295 24.8845 10.5854C25.0292 10.2412 25.0383 9.85501 24.91 9.50439C24.8438 9.69189 24.7406 9.8642 24.6067 10.0111C24.4727 10.1581 24.3106 10.2767 24.13 10.3599Z" fill="#DE8800"/>
<path d="M9.007 17.3299C8.85267 17.2429 8.72433 17.1163 8.63521 16.9632C8.54609 16.8101 8.49941 16.636 8.5 16.4589V13.4999C8.5 13.2346 8.60536 12.9803 8.79289 12.7928C8.98043 12.6052 9.23478 12.4999 9.5 12.4999H9.5945C9.386 12.0259 9.2295 11.6269 9.13 11.3599C8.93294 11.4526 8.71777 11.5004 8.5 11.4999C8.32921 11.5009 8.1597 11.4704 8 11.4099V17.2899C8.895 18.2949 9.78 18.9999 10.5 18.9999C11.49 18.9999 12.265 18.3549 12.87 17.3899C12.82 17.3464 12.77 17.2979 12.72 17.2524C11.336 18.3659 9.7865 17.7684 9.007 17.3299Z" fill="#FF9C00"/>
<path d="M23.4999 11.4999C23.2821 11.5004 23.0669 11.4526 22.8699 11.3599C22.7699 11.6269 22.6139 12.0259 22.4054 12.4999H22.4999C22.7651 12.4999 23.0195 12.6052 23.207 12.7928C23.3945 12.9803 23.4999 13.2346 23.4999 13.4999V16.4589C23.5005 16.636 23.4538 16.8101 23.3647 16.9632C23.2756 17.1163 23.1472 17.2429 22.9929 17.3299C22.2134 17.7684 20.6654 18.3624 19.2829 17.2509C19.2329 17.2969 19.1829 17.3459 19.1299 17.3899C19.7349 18.3549 20.5099 18.9999 21.4999 18.9999C22.2199 18.9999 23.1049 18.2949 23.9999 17.2899V11.4099C23.8402 11.4704 23.6707 11.5009 23.4999 11.4999Z" fill="#FF9C00"/>
<path d="M28.3042 12.385C28.3585 12.2785 28.4491 12.1948 28.5596 12.1489C28.6701 12.1031 28.7933 12.0982 28.9072 12.135L29.0677 12.1885L29.5002 11C29.1113 11.0005 28.7308 10.8875 28.4052 10.675C27.9552 11.505 25.9502 15.11 24.0002 17.29C23.2197 18.1665 22.4472 18.814 21.7847 18.9655C22.6637 18.8035 25.4612 17.862 28.3042 12.385Z" fill="#FFBF40"/>
<path d="M17.035 22.39L16.504 22H15.496L14.965 22.39C14.8876 22.4478 14.7962 22.4838 14.7002 22.4943C14.6042 22.5047 14.5071 22.4892 14.4191 22.4494C14.3311 22.4095 14.2554 22.3469 14.1999 22.2678C14.1444 22.1888 14.1111 22.0963 14.1035 22H9.5C9.10218 22 8.72064 21.842 8.43934 21.5607C8.15804 21.2794 8 20.8979 8 20.5L3.8885 12.734C3.84814 12.6578 3.82818 12.5725 3.83055 12.4863C3.83292 12.4001 3.85755 12.316 3.90203 12.2421C3.94651 12.1682 4.00935 12.1071 4.08442 12.0647C4.1595 12.0223 4.24427 12 4.3305 12H4.343C3.99 11.3945 3.7255 10.916 3.593 10.675C3.26792 10.8871 2.88815 11.0001 2.5 11L6.5 22V24H25.5V22H17.8965C17.8889 22.0963 17.8556 22.1888 17.8001 22.2678C17.7446 22.3469 17.6689 22.4095 17.5809 22.4494C17.4929 22.4892 17.3959 22.5047 17.2998 22.4943C17.2038 22.4838 17.1124 22.4478 17.035 22.39Z" fill="#FFBF40"/>
<path d="M15.46 10.936C15.4763 10.682 15.5888 10.4438 15.7746 10.2699C15.9604 10.096 16.2055 9.99945 16.46 9.99997H17.129C17.0675 9.42497 17.033 8.96947 17.017 8.71997C16.7102 8.90323 16.3594 9 16.002 9C15.6446 9 15.2938 8.90323 14.987 8.71997C14.917 9.81997 14.507 14.785 12.872 17.39C12.265 18.355 11.49 19 10.5 19C14.5 19 15.3 13.24 15.46 10.936Z" fill="#FFBF40"/>
<path d="M18.9059 19.129C18.8305 18.9427 18.701 18.7833 18.5342 18.6712C18.3674 18.5591 18.1709 18.4995 17.9699 18.5H17.3254L16.9449 17.604C16.9409 17.5947 16.9364 17.5852 16.9314 17.5755C16.8454 17.4021 16.7126 17.2563 16.5479 17.1546C16.3833 17.0528 16.1934 16.9993 15.9999 17C15.8013 17.0007 15.607 17.0579 15.4397 17.1648C15.2724 17.2717 15.1389 17.4241 15.0549 17.604L14.6744 18.5H14.0299C13.8288 18.5004 13.6323 18.5607 13.4654 18.673C13.2986 18.7854 13.1689 18.9448 13.0929 19.131C13.0168 19.3172 12.9979 19.5218 13.0384 19.7188C13.0789 19.9159 13.1771 20.0964 13.3204 20.2375L13.8299 20.7375L13.6204 21.759C13.5772 21.9633 13.5977 22.176 13.6793 22.3683C13.7608 22.5605 13.8994 22.7231 14.0764 22.834C14.245 22.9423 14.441 23.0001 14.6414 23.0005C14.8646 23.0005 15.0819 22.928 15.2604 22.794L15.9999 22.25L16.7359 22.791C16.9056 22.919 17.1106 22.9917 17.323 22.9992C17.5355 23.0067 17.7451 22.9487 17.9234 22.833C18.1002 22.7223 18.2387 22.56 18.3204 22.368C18.402 22.176 18.4228 21.9637 18.3799 21.7595L18.1699 20.7365L18.6809 20.2365C18.8245 20.0954 18.9227 19.9145 18.9628 19.7172C19.0029 19.5198 18.9831 19.315 18.9059 19.129ZM18.3299 19.879L17.6249 20.569L17.8899 21.859C17.9102 21.966 17.8976 22.0766 17.8537 22.1763C17.8099 22.276 17.7369 22.3601 17.6443 22.4174C17.5517 22.4748 17.444 22.5028 17.3352 22.4977C17.2264 22.4927 17.1217 22.4548 17.0349 22.389L15.9999 21.63L14.9649 22.39C14.8781 22.4558 14.7734 22.4937 14.6646 22.4987C14.5558 22.5038 14.4481 22.4758 14.3555 22.4185C14.2629 22.3611 14.1899 22.277 14.1461 22.1773C14.1023 22.0776 14.0896 21.967 14.1099 21.86L14.3749 20.57L13.6699 19.88C13.5976 19.8084 13.5482 19.7169 13.5279 19.6172C13.5075 19.5174 13.5173 19.4139 13.5558 19.3197C13.5944 19.2255 13.66 19.1448 13.7444 19.0879C13.8287 19.031 13.9281 19.0004 14.0299 19H15.0049L15.5149 17.8C15.5599 17.7099 15.6291 17.634 15.7147 17.581C15.8004 17.528 15.8992 17.5 15.9999 17.5C16.1006 17.5 16.1994 17.528 16.2851 17.581C16.3707 17.634 16.4399 17.7099 16.4849 17.8L16.9949 19H17.9699C18.0717 19.0004 18.1711 19.031 18.2555 19.0879C18.3398 19.1448 18.4055 19.2255 18.444 19.3197C18.4825 19.4139 18.4923 19.5174 18.472 19.6172C18.4517 19.7169 18.4022 19.8084 18.3299 19.88V19.879Z" fill="#FF9C00"/>
<path d="M24 10C24.2761 10 24.5 9.77614 24.5 9.5C24.5 9.22386 24.2761 9 24 9C23.7239 9 23.5 9.22386 23.5 9.5C23.5 9.77614 23.7239 10 24 10Z" fill="#FFC608"/>
<path d="M9 10C9.27614 10 9.5 9.77614 9.5 9.5C9.5 9.22386 9.27614 9 9 9C8.72386 9 8.5 9.22386 8.5 9.5C8.5 9.77614 8.72386 10 9 10Z" fill="#FFC608"/>
<path d="M16.5 7C16.7761 7 17 6.77614 17 6.5C17 6.22386 16.7761 6 16.5 6C16.2239 6 16 6.22386 16 6.5C16 6.77614 16.2239 7 16.5 7Z" fill="#FFFCED"/>
<path d="M30.5 9C30.7761 9 31 8.77614 31 8.5C31 8.22386 30.7761 8 30.5 8C30.2239 8 30 8.22386 30 8.5C30 8.77614 30.2239 9 30.5 9Z" fill="#FFFCED"/>
<path d="M3.5 9C3.77614 9 4 8.77614 4 8.5C4 8.22386 3.77614 8 3.5 8C3.22386 8 3 8.22386 3 8.5C3 8.77614 3.22386 9 3.5 9Z" fill="#FFFCED"/>
</svg>
