<svg width="24" height="24" viewBox="0 0 24 24" fill="none" xmlns="http://www.w3.org/2000/svg">
<path d="M10.3301 16.5929H4.02942" stroke="url(#paint0_linear_5_489)" stroke-width="1.5" stroke-linecap="round" stroke-linejoin="round"/>
<path d="M13.1405 6.90037H19.4412" stroke="url(#paint1_linear_5_489)" stroke-width="1.5" stroke-linecap="round" stroke-linejoin="round"/>
<path fill-rule="evenodd" clip-rule="evenodd" d="M8.72629 6.84625C8.72629 5.5506 7.66813 4.5 6.36314 4.5C5.05816 4.5 4 5.5506 4 6.84625C4 8.14191 5.05816 9.19251 6.36314 9.19251C7.66813 9.19251 8.72629 8.14191 8.72629 6.84625Z" stroke="url(#paint2_linear_5_489)" stroke-width="1.5" stroke-linecap="round" stroke-linejoin="round"/>
<path fill-rule="evenodd" clip-rule="evenodd" d="M20 16.5537C20 15.2581 18.9426 14.2075 17.6376 14.2075C16.3318 14.2075 15.2737 15.2581 15.2737 16.5537C15.2737 17.8494 16.3318 18.9 17.6376 18.9C18.9426 18.9 20 17.8494 20 16.5537Z" stroke="url(#paint3_linear_5_489)" stroke-width="1.5" stroke-linecap="round" stroke-linejoin="round"/>
<defs>
<linearGradient id="paint0_linear_5_489" x1="3.58837" y1="16.0307" x2="3.782" y2="17.8099" gradientUnits="userSpaceOnUse">
<stop stop-color="#1460F2"/>
<stop offset="1" stop-color="#1E75FA"/>
</linearGradient>
<linearGradient id="paint1_linear_5_489" x1="12.6995" y1="6.33821" x2="12.8931" y2="8.11733" gradientUnits="userSpaceOnUse">
<stop stop-color="#1460F2"/>
<stop offset="1" stop-color="#1E75FA"/>
</linearGradient>
<linearGradient id="paint2_linear_5_489" x1="3.66916" y1="3.65535" x2="8.68337" y2="9.74403" gradientUnits="userSpaceOnUse">
<stop stop-color="#1460F2"/>
<stop offset="1" stop-color="#1E75FA"/>
</linearGradient>
<linearGradient id="paint3_linear_5_489" x1="14.9428" y1="13.3628" x2="19.957" y2="19.4515" gradientUnits="userSpaceOnUse">
<stop stop-color="#1460F2"/>
<stop offset="1" stop-color="#1E75FA"/>
</linearGradient>
</defs>
</svg>
