<svg width="25" height="24" viewBox="0 0 25 24" fill="none" xmlns="http://www.w3.org/2000/svg">
<path d="M16.2123 16.773L7.72706 8.28777C7.43714 7.99785 7.43714 7.51702 7.72706 7.22711C8.01697 6.93719 8.4978 6.93719 8.78772 7.22711L17.273 15.7124C17.5629 16.0023 17.5629 16.4831 17.273 16.773C16.9831 17.063 16.5023 17.063 16.2123 16.773Z" fill="#AEAEB2"/>
<path d="M7.727 16.773C7.43709 16.4831 7.43709 16.0023 7.727 15.7124L16.2123 7.22711C16.5022 6.93719 16.983 6.93719 17.2729 7.22711C17.5629 7.51702 17.5629 7.99785 17.2729 8.28777L8.78766 16.773C8.49775 17.063 8.01692 17.063 7.727 16.773Z" fill="#AEAEB2"/>
</svg>
