<svg width="24" height="24" viewBox="0 0 24 24" fill="none" xmlns="http://www.w3.org/2000/svg">
<g clip-path="url(#clip0_151_3907)">
<path d="M11.9788 19.0583C17.2416 19.0583 21.508 14.7919 21.508 9.52913C21.508 4.26634 17.2416 0 11.9788 0C6.71605 0 2.44971 4.26634 2.44971 9.52913C2.44971 14.7919 6.71605 19.0583 11.9788 19.0583Z" fill="#FFD15C"/>
<path d="M4.25921 15.104L0.980469 20.7875L4.80724 20.5843L6.54582 24.0001L9.57889 18.7418C7.40567 18.1796 5.53952 16.8709 4.25921 15.104Z" fill="#D43971"/>
<path d="M19.7176 15.0757C18.4468 16.8473 16.5806 18.1607 14.4121 18.7324L17.4546 24.0001L19.1932 20.5843L23.02 20.7875L19.7176 15.0757Z" fill="#D43971"/>
<path d="M11.9789 16.4362C15.7935 16.4362 18.886 13.3438 18.886 9.52916C18.886 5.71448 15.7935 2.62207 11.9789 2.62207C8.16419 2.62207 5.07178 5.71448 5.07178 9.52916C5.07178 13.3438 8.16419 16.4362 11.9789 16.4362Z" fill="#F8B64C"/>
<path d="M16.7128 8.78267C16.9254 8.5748 16.8073 8.21102 16.5144 8.1685L13.7884 7.77165C13.6703 7.75275 13.5711 7.68189 13.5191 7.57323L12.3002 5.10236C12.1679 4.83307 11.7853 4.83307 11.653 5.10236L10.4388 7.57323C10.3868 7.67716 10.2829 7.75275 10.1695 7.77165L7.44352 8.1685C7.15061 8.21102 7.0325 8.5748 7.2451 8.78267L9.21517 10.7055C9.30021 10.7905 9.33801 10.9087 9.31911 11.022L8.85612 13.7339C8.80415 14.0268 9.11596 14.2535 9.38053 14.1118L11.8183 12.8315C11.9223 12.7748 12.0498 12.7748 12.1538 12.8315L14.5916 14.1118C14.8561 14.2488 15.1632 14.0268 15.116 13.7339L14.6482 11.022C14.6293 10.9039 14.6671 10.7858 14.7522 10.7055L16.7128 8.78267Z" fill="white"/>
</g>
<defs>
<clipPath id="clip0_151_3907">
<rect width="24" height="24" fill="white"/>
</clipPath>
</defs>
</svg>
