<svg width="13" height="12" viewBox="0 0 13 12" fill="none" xmlns="http://www.w3.org/2000/svg">
<path d="M12.55 2.50514L10.495 0.450137C10.2268 0.198209 9.87535 0.0536567 9.50751 0.0439766C9.13966 0.0342965 8.78109 0.160165 8.50001 0.397638L1.75001 7.14764C1.50758 7.39211 1.35664 7.71254 1.32251 8.05514L1.00001 11.1826C0.989906 11.2925 1.00416 11.4032 1.04175 11.5069C1.07935 11.6106 1.13936 11.7048 1.21751 11.7826C1.28759 11.8521 1.3707 11.9071 1.46208 11.9445C1.55346 11.9818 1.6513 12.0007 1.75001 12.0001H1.81751L4.94501 11.7151C5.28761 11.681 5.60804 11.5301 5.85251 11.2876L12.6025 4.53764C12.8645 4.26086 13.0061 3.89152 12.9962 3.51054C12.9864 3.12956 12.8259 2.76802 12.55 2.50514V2.50514ZM10 5.01014L7.99001 3.00014L9.45251 1.50014L11.5 3.54764L10 5.01014Z" fill="#FEFEFE"/>
</svg>
