<svg width="24" height="24" viewBox="0 0 24 24" fill="none" xmlns="http://www.w3.org/2000/svg">
<g clip-path="url(#clip0_95_4081)">
<path d="M23.9118 5.56692C23.7874 5.07918 23.4409 4.67218 22.9868 4.46359L23.0675 4.27859C23.1751 4.02966 23.1785 3.75386 23.0742 3.50158C23.0002 3.31658 22.8757 3.16186 22.7177 3.05083L23.1415 2.04506C23.1415 2.04506 23.1415 2.04506 23.1415 2.04171C23.4509 1.29834 23.0977 0.433829 22.3577 0.117692C21.6177 -0.19851 20.7498 0.144628 20.4269 0.88123V0.884581V0.887931L20.0065 1.87688C19.5557 1.79949 19.0916 2.03836 18.9031 2.479L11.6275 19.4457C11.5905 19.5298 11.5771 19.6206 11.5838 19.7114L11.7519 22.0054C11.4257 21.5648 11.0859 21.1208 10.6857 20.7339C10.1508 20.2193 9.32337 19.5633 8.32437 19.7921C7.60787 19.9569 7.1269 20.5994 6.69967 21.1679C6.56512 21.3462 6.43727 21.5177 6.31954 21.6455C5.61316 22.4158 5.09513 22.3552 4.76211 22.2443C4.4695 22.1433 4.17011 21.9752 3.88755 21.7565C4.34165 21.437 4.78563 21.1039 5.21621 20.7508C5.62656 20.4144 6.09748 19.9973 6.47091 19.4692C6.71984 19.116 7.00575 18.6417 6.99899 18.0968C6.99564 17.5552 6.74001 17.0069 6.31954 16.6336C5.556 15.9575 4.58388 15.8263 3.58481 16.2602C2.49495 16.7311 1.72807 17.7369 1.58675 18.8839C1.47572 19.782 1.78187 20.7709 2.42768 21.6085C1.71118 22.0761 0.98128 22.5234 0.261431 22.9607C0.039439 23.0952 -0.0311859 23.3845 0.103363 23.6065C0.237912 23.8285 0.527178 23.8991 0.74917 23.7646C1.52283 23.2936 2.3066 22.816 3.07684 22.3081C3.504 22.6848 3.97834 22.9707 4.45596 23.1355C5.35405 23.4416 6.21521 23.1523 7.01239 22.2811C7.1604 22.1196 7.30165 21.9313 7.44967 21.7362C7.77934 21.2989 8.1527 20.8011 8.53276 20.7136C8.95993 20.6161 9.4208 20.8314 10.0263 21.4167C10.4333 21.8068 10.7764 22.2778 11.143 22.7756C11.402 23.1322 11.6745 23.4988 11.9705 23.8385C12.0647 23.9462 12.1924 24 12.3236 24C12.4144 24 12.502 23.9731 12.5826 23.9226C12.6533 23.9025 12.7205 23.8655 12.7811 23.8184L15.6705 21.4671L15.6739 21.4638C15.6874 21.4537 15.7008 21.4403 15.7109 21.4301C15.7109 21.4301 15.7109 21.4301 15.7142 21.4268C15.7277 21.4133 15.7378 21.3998 15.7512 21.3864C15.7546 21.3831 15.7579 21.3797 15.7579 21.3763C15.7646 21.3662 15.7714 21.3562 15.7814 21.346C15.7848 21.3393 15.7881 21.3359 15.7916 21.3292C15.7983 21.3191 15.8017 21.3091 15.8084 21.2989C15.8117 21.2922 15.8151 21.2888 15.8185 21.2821C15.8252 21.2686 15.832 21.2552 15.8387 21.2418V21.2384V21.2351L22.6201 5.32811C22.8085 5.42232 22.9498 5.5972 23.0036 5.80238C23.0607 6.02102 23.0103 6.25648 22.8724 6.43478C22.869 6.43813 22.8657 6.44148 22.8657 6.4449C22.8623 6.44825 22.859 6.4516 22.8556 6.45502C22.018 7.66596 21.5202 8.76587 21.2948 9.9163C21.204 10.3771 21.1535 10.8683 21.1333 11.4636C21.1266 11.7226 21.3284 11.9412 21.5874 11.948C21.5941 11.948 21.5975 11.948 21.6042 11.948C21.8565 11.948 22.065 11.7462 22.0751 11.4905C22.092 10.9456 22.1391 10.5016 22.2198 10.0946C22.4183 9.07537 22.869 8.08984 23.6292 6.98651C23.932 6.5895 24.0396 6.05807 23.9118 5.56692ZM2.51519 19.0016C2.6161 18.1842 3.16776 17.4644 3.95489 17.1246C4.16683 17.0338 4.42916 16.9565 4.70837 16.9565C5.02793 16.9565 5.36765 17.054 5.69397 17.3433C5.91596 17.5384 6.05386 17.831 6.05728 18.1068C6.06063 18.386 5.86892 18.6921 5.70074 18.9309C5.3913 19.3682 4.98089 19.7281 4.61764 20.0275C4.16354 20.3975 3.69262 20.7507 3.20823 21.0871C2.68002 20.4279 2.4311 19.671 2.51519 19.0016ZM12.9091 22.2341L12.8082 20.8584C13.1715 21.0837 13.5684 21.2553 13.9821 21.3629L12.9091 22.2341ZM14.887 20.5523C14.0998 20.5119 13.3498 20.1924 12.7779 19.6508L17.3862 8.9037L19.4684 9.79508L14.887 20.5523ZM19.8383 8.93405L17.7562 8.04267L19.8988 3.04754L21.9642 3.94563L19.8383 8.93405ZM22.0887 1.60114L21.6817 2.56992L21.0661 2.30082L21.4764 1.33546C21.5471 1.17063 21.7422 1.0933 21.9104 1.16728C22.0786 1.23784 22.156 1.43296 22.0887 1.60114Z" fill="#1C1C1E"/>
</g>
<defs>
<clipPath id="clip0_95_4081">
<rect width="24" height="24" fill="white"/>
</clipPath>
</defs>
</svg>
